<svg width="38" height="50" viewBox="0 0 38 50" fill="none" xmlns="http://www.w3.org/2000/svg">
<path fill-rule="evenodd" clip-rule="evenodd" d="M26.8207 25.0691H3.39657C1.72775 25.0691 0.375 23.7163 0.375 22.0475V14.5596C0.375 12.8908 1.72775 11.5381 3.39657 11.5381H14.9749C14.6333 10.6349 14.4587 9.67716 14.4595 8.71153C14.4595 4.29172 18.0652 0.686035 22.485 0.686035C26.9048 0.686035 30.5082 4.29172 30.5082 8.71153C30.5091 9.67713 30.3346 10.6349 29.9931 11.5381H33.6222C35.2909 11.5381 36.6437 12.8908 36.6437 14.5596V22.0475C36.6437 23.7163 35.2909 25.0691 33.6222 25.0691H32.9682V30.7097L32.9962 30.7104C35.7371 30.7785 37.6289 32.5024 37.6289 35.2437C37.6289 35.2668 37.6279 35.2901 37.6259 35.3131L37.269 39.328C37.1129 41.1061 36.0243 42.4933 34.4832 43.3898L32.1575 44.744C31.8078 44.9477 31.6096 45.2952 31.6096 45.7001V48.5292C31.6096 48.7372 31.527 48.9367 31.3799 49.0838C31.2328 49.2309 31.0333 49.3135 30.8253 49.3135H16.1855C15.9775 49.3135 15.778 49.2309 15.6309 49.0838C15.4838 48.9367 15.4012 48.7372 15.4012 48.5292V45.7001C15.4012 45.5013 15.356 45.3169 15.2654 45.1559L15.2646 45.1546C14.7144 44.1721 14.4595 43.2092 14.4595 42.0842V32.492C14.4595 30.9205 15.7464 29.6396 17.312 29.6396C17.6934 29.6396 18.0573 29.7143 18.3898 29.8501C18.8155 28.7753 19.8652 28.0101 21.0869 28.0101C21.6347 28.0094 22.1714 28.1649 22.6341 28.4583C23.1774 27.5354 24.1829 26.9137 25.322 26.9137C25.8461 26.9131 26.3617 27.0455 26.8207 27.2985V25.0691ZM15.7763 13.1067H3.39657C2.59412 13.1067 1.94363 13.7572 1.94363 14.5597V22.0475C1.94363 22.85 2.59412 23.5004 3.39657 23.5004H26.8207V20.5953C26.8207 18.9043 28.2057 17.5193 29.8966 17.5193C31.5879 17.5193 32.9682 18.9039 32.9682 20.5953V23.5004H33.6222C34.4246 23.5004 35.0751 22.85 35.0751 22.0475V14.5596C35.0751 13.7572 34.4246 13.1067 33.6222 13.1067H29.1923C27.756 15.2895 25.2842 16.7348 22.485 16.7348C19.6858 16.7348 17.2131 15.2894 15.7763 13.1067ZM30.1513 44.9157C30.3385 44.2784 30.7585 43.7436 31.3677 43.3886L33.6942 42.034C34.7843 41.4 35.596 40.4482 35.7065 39.1908L35.7066 39.19L36.0602 35.2098C36.0442 33.4143 34.7601 32.3228 32.9558 32.2786L32.9537 32.2785L32.1626 32.257C31.9584 32.2515 31.7644 32.1664 31.6219 32.02C31.4793 31.8736 31.3996 31.6773 31.3996 31.473V20.5953C31.3996 19.767 30.7248 19.0879 29.8966 19.0879C29.068 19.0879 28.3893 19.7666 28.3893 20.5953V29.5425C28.3894 29.7362 28.3179 29.923 28.1885 30.0671C28.0591 30.2111 27.881 30.3022 27.6884 30.3228C27.4959 30.3434 27.3025 30.292 27.1456 30.1786C26.9886 30.0652 26.8792 29.8977 26.8383 29.7084C26.687 29.0085 26.0646 28.4823 25.322 28.4823C24.4835 28.4823 23.79 29.1604 23.7758 29.9987C23.7728 30.1745 23.7108 30.3443 23.5998 30.4807C23.4887 30.6171 23.335 30.7122 23.1634 30.7507C22.9918 30.7892 22.8122 30.769 22.6535 30.6932C22.4948 30.6174 22.3662 30.4904 22.2883 30.3327C22.0684 29.8874 21.6135 29.5787 21.0869 29.5787C20.3533 29.5787 19.7559 30.1804 19.7559 30.9141V31.258C19.7559 31.4228 19.704 31.5834 19.6075 31.717C19.5111 31.8507 19.375 31.9505 19.2186 32.0024C19.0622 32.0543 18.8934 32.0557 18.7362 32.0062C18.579 31.9567 18.4414 31.859 18.3428 31.7269C18.1077 31.4117 17.734 31.2082 17.312 31.2082C16.6074 31.2082 16.0281 31.7847 16.0281 32.492V42.0842C16.0281 42.9284 16.2204 43.6508 16.6325 44.3869C16.7268 44.5543 16.8021 44.7317 16.8572 44.9157H30.1513ZM16.9697 46.4844V47.7449H30.041V46.4844H16.9697ZM4.88882 17.2776C4.45598 17.2776 4.10451 16.9261 4.10451 16.4933C4.10451 16.0603 4.45598 15.709 4.88882 15.709H14.0751C14.508 15.709 14.8594 16.0603 14.8594 16.4933C14.8594 16.9261 14.508 17.2776 14.0751 17.2776H4.88882ZM4.88882 20.8982C4.45598 20.8982 4.10451 20.5467 4.10451 20.1139C4.10451 19.681 4.45598 19.3296 4.88882 19.3296H21.7651C22.198 19.3296 22.5494 19.681 22.5494 20.1139C22.5494 20.5467 22.198 20.8982 21.7651 20.8982H4.88882ZM22.485 15.1661C26.0407 15.1661 28.9396 12.2672 28.9396 8.71153C28.9396 5.15564 26.0408 2.25466 22.485 2.25466C18.9291 2.25466 16.0281 5.15564 16.0281 8.71153C16.0281 12.2673 18.9292 15.1661 22.485 15.1661ZM21.5316 8.23672L24.4961 5.24133L24.4974 5.23986C25.2194 4.51427 26.3975 4.51074 27.1231 5.2327C27.8484 5.95417 27.8532 7.1279 27.1318 7.85692L27.1315 7.85721C25.7026 9.29898 24.2847 10.7494 22.8495 12.1846C22.1243 12.9098 20.9469 12.9098 20.2217 12.1846L17.8432 9.80398C17.1184 9.07917 17.117 7.90613 17.8418 7.1776L17.8432 7.17613C18.5684 6.45094 19.7459 6.45094 20.4711 7.17613L21.5316 8.23672ZM20.9799 9.90339L19.3619 8.28535C19.3077 8.2312 19.2342 8.20073 19.1576 8.2006C19.081 8.20047 19.0075 8.2307 18.9531 8.28466C18.8404 8.39868 18.8392 8.58162 18.9524 8.69476L21.3309 11.0753C21.3852 11.1296 21.4588 11.1601 21.5356 11.1601C21.6124 11.1601 21.686 11.1296 21.7403 11.0753C23.1737 9.64192 24.5899 8.19339 26.0169 6.75339C26.1292 6.63986 26.1298 6.45711 26.0169 6.34466C25.9626 6.29099 25.8893 6.26099 25.813 6.26123C25.7367 6.26147 25.6636 6.29193 25.6097 6.34594L22.092 9.90045C22.0193 9.97387 21.9328 10.0322 21.8374 10.0721C21.7421 10.112 21.6399 10.1327 21.5365 10.133C21.4332 10.1332 21.3308 10.1131 21.2353 10.0737C21.1398 10.0343 21.053 9.97642 20.9799 9.90339Z" fill="#070707"/>
</svg>
