<svg width="18" height="18" viewBox="0 0 18 18" fill="none" xmlns="http://www.w3.org/2000/svg">
<g clip-path="url(#clip0_5193_6058)">
<path fill-rule="evenodd" clip-rule="evenodd" d="M9 15.9375C9.14918 15.9375 9.29226 15.9968 9.39775 16.1023C9.50324 16.2077 9.5625 16.3508 9.5625 16.5C9.5625 16.6492 9.50324 16.7923 9.39775 16.8977C9.29226 17.0032 9.14918 17.0625 9 17.0625H3C2.45325 17.0625 1.92825 16.845 1.54125 16.4587C1.15485 16.0716 0.93773 15.547 0.9375 15V3C0.9375 2.45325 1.155 1.92825 1.54125 1.54125C1.92842 1.15485 2.453 0.93773 3 0.9375H9.4395C9.7875 0.9375 10.1213 1.0755 10.3673 1.32225L13.6777 4.63275C13.9245 4.87875 14.0625 5.2125 14.0625 5.5605V8.25C14.0625 8.39918 14.0032 8.54226 13.8977 8.64775C13.7923 8.75324 13.6492 8.8125 13.5 8.8125C13.3508 8.8125 13.2077 8.75324 13.1023 8.64775C12.9968 8.54226 12.9375 8.39918 12.9375 8.25V5.5605C12.9375 5.53586 12.9327 5.51145 12.9233 5.48868C12.9139 5.4659 12.9002 5.44519 12.8827 5.42775L9.57225 2.11725C9.5548 2.09985 9.5341 2.08606 9.51132 2.07666C9.48855 2.06727 9.46414 2.06246 9.4395 2.0625H3C2.75148 2.0629 2.51325 2.1618 2.33753 2.33753C2.1618 2.51325 2.0629 2.75148 2.0625 3V15C2.0629 15.2485 2.1618 15.4867 2.33753 15.6625C2.51325 15.8382 2.75148 15.9371 3 15.9375H9Z" fill="#4A4C56"/>
<path fill-rule="evenodd" clip-rule="evenodd" d="M9.1875 1.875C9.1875 1.72582 9.24676 1.58274 9.35225 1.47725C9.45774 1.37176 9.60082 1.3125 9.75 1.3125C9.89918 1.3125 10.0423 1.37176 10.1477 1.47725C10.2532 1.58274 10.3125 1.72582 10.3125 1.875V4.5C10.3125 4.6035 10.3965 4.6875 10.5 4.6875H13.125C13.2742 4.6875 13.4173 4.74676 13.5227 4.85225C13.6282 4.95774 13.6875 5.10082 13.6875 5.25C13.6875 5.39918 13.6282 5.54226 13.5227 5.64775C13.4173 5.75324 13.2742 5.8125 13.125 5.8125H10.5C10.1519 5.8125 9.81806 5.67422 9.57192 5.42808C9.32578 5.18194 9.1875 4.8481 9.1875 4.5V1.875ZM4.5 8.4375C4.35082 8.4375 4.20774 8.37824 4.10225 8.27275C3.99676 8.16726 3.9375 8.02418 3.9375 7.875C3.9375 7.72582 3.99676 7.58274 4.10225 7.47725C4.20774 7.37176 4.35082 7.3125 4.5 7.3125H10.5C10.6492 7.3125 10.7923 7.37176 10.8977 7.47725C11.0032 7.58274 11.0625 7.72582 11.0625 7.875C11.0625 8.02418 11.0032 8.16726 10.8977 8.27275C10.7923 8.37824 10.6492 8.4375 10.5 8.4375H4.5ZM4.5 11.0625C4.35082 11.0625 4.20774 11.0032 4.10225 10.8977C3.99676 10.7923 3.9375 10.6492 3.9375 10.5C3.9375 10.3508 3.99676 10.2077 4.10225 10.1023C4.20774 9.99676 4.35082 9.9375 4.5 9.9375H7.875C8.02418 9.9375 8.16726 9.99676 8.27275 10.1023C8.37824 10.2077 8.4375 10.3508 8.4375 10.5C8.4375 10.6492 8.37824 10.7923 8.27275 10.8977C8.16726 11.0032 8.02418 11.0625 7.875 11.0625H4.5ZM4.5 13.6875C4.35082 13.6875 4.20774 13.6282 4.10225 13.5227C3.99676 13.4173 3.9375 13.2742 3.9375 13.125C3.9375 12.9758 3.99676 12.8327 4.10225 12.7273C4.20774 12.6218 4.35082 12.5625 4.5 12.5625H7.875C8.02418 12.5625 8.16726 12.6218 8.27275 12.7273C8.37824 12.8327 8.4375 12.9758 8.4375 13.125C8.4375 13.2742 8.37824 13.4173 8.27275 13.5227C8.16726 13.6282 8.02418 13.6875 7.875 13.6875H4.5Z" fill="#4A4C56"/>
<path d="M13.3945 14.3438C14.0159 14.3438 14.5195 13.8401 14.5195 13.2188C14.5195 12.5974 14.0159 12.0938 13.3945 12.0938C12.7732 12.0938 12.2695 12.5974 12.2695 13.2188C12.2695 13.8401 12.7732 14.3438 13.3945 14.3438Z" fill="#4A4C56"/>
<path fill-rule="evenodd" clip-rule="evenodd" d="M14.5487 9.783L14.8142 10.4242C14.9154 10.4752 15.0137 10.5322 15.1089 10.5937L15.7974 10.5037C15.8893 10.492 15.9826 10.503 16.0692 10.5358C16.1558 10.5686 16.233 10.6223 16.2939 10.692C16.6209 11.067 16.8722 11.5027 17.0342 11.9737C17.0641 12.0615 17.0719 12.1552 17.0568 12.2467C17.0418 12.3382 17.0044 12.4245 16.9479 12.498L16.5264 13.0485C16.5324 13.1617 16.5324 13.2757 16.5264 13.3882L16.9479 13.9395C17.0044 14.013 17.0418 14.0993 17.0568 14.1908C17.0719 14.2823 17.0641 14.376 17.0342 14.4637C16.8724 14.9347 16.621 15.37 16.2939 15.7455C16.233 15.8152 16.1558 15.8689 16.0692 15.9017C15.9826 15.9345 15.8893 15.9455 15.7974 15.9337C15.7974 15.9337 15.1089 15.8437 15.1097 15.843C15.0146 15.9051 14.9162 15.9619 14.8149 16.0132L14.5487 16.6545C14.5132 16.7401 14.4571 16.8156 14.3854 16.8742C14.3137 16.9328 14.2286 16.9728 14.1377 16.9905C13.6488 17.0865 13.146 17.0865 12.6572 16.9905C12.5662 16.9728 12.4811 16.9328 12.4094 16.8742C12.3377 16.8156 12.2816 16.7401 12.2462 16.6545L11.9807 16.0132C11.8794 15.9622 11.781 15.9056 11.6859 15.8437L10.9974 15.9337C10.9055 15.9456 10.8122 15.9346 10.7256 15.9018C10.639 15.869 10.5618 15.8153 10.5009 15.7455C10.1733 15.3704 9.92184 14.935 9.76065 14.4637C9.73075 14.3761 9.72291 14.2824 9.73782 14.1909C9.75274 14.0995 9.78994 14.0131 9.84615 13.9395L10.2684 13.389C10.2624 13.2758 10.2624 13.1624 10.2684 13.0492L9.84615 12.498C9.78994 12.4244 9.75274 12.338 9.73782 12.2466C9.72291 12.1551 9.73075 12.0614 9.76065 11.9737C9.9219 11.5027 10.1732 11.067 10.5009 10.692C10.5618 10.6222 10.639 10.5685 10.7256 10.5357C10.8122 10.5029 10.9055 10.4919 10.9974 10.5037C10.9974 10.5037 11.6859 10.5937 11.6852 10.5945C11.7804 10.5322 11.8787 10.4752 11.9799 10.4242L12.2462 9.783C12.2816 9.69741 12.3377 9.62194 12.4094 9.56331C12.4811 9.50468 12.5662 9.46472 12.6572 9.447C13.146 9.351 13.6488 9.351 14.1377 9.447C14.2286 9.46472 14.3137 9.50468 14.3854 9.56331C14.4571 9.62194 14.5132 9.69741 14.5487 9.783ZM13.6322 10.5105C13.476 10.4966 13.3188 10.4966 13.1627 10.5105L12.9347 11.0587C12.8774 11.1963 12.7679 11.3056 12.6302 11.3625C12.4669 11.4299 12.3133 11.5187 12.1734 11.6265C12.0551 11.7171 11.9057 11.7573 11.7579 11.7382L11.1692 11.661C11.0792 11.79 11.0004 11.9257 10.9344 12.0682L11.2952 12.5392C11.3858 12.6578 11.4257 12.8075 11.4062 12.9555C11.3829 13.1302 11.3829 13.3073 11.4062 13.482C11.4257 13.63 11.3858 13.7797 11.2952 13.8982L10.9344 14.37C11.0004 14.5117 11.0792 14.6482 11.1692 14.7765L11.7579 14.6992C11.9057 14.6802 12.0551 14.7204 12.1734 14.811C12.3137 14.919 12.4667 15.0075 12.6302 15.075C12.7679 15.1319 12.8774 15.2412 12.9347 15.3787L13.1627 15.927C13.3187 15.9412 13.4762 15.9412 13.6322 15.927L13.8602 15.3787C13.9174 15.2412 14.0269 15.1319 14.1647 15.075C14.3274 15.0075 14.4812 14.919 14.6214 14.811C14.7397 14.7204 14.8891 14.6802 15.0369 14.6992L15.6257 14.7765C15.7157 14.6475 15.7944 14.5117 15.8604 14.3692L15.4997 13.8982C15.409 13.7797 15.3691 13.63 15.3887 13.482C15.4111 13.3072 15.4111 13.1303 15.3887 12.9555C15.3691 12.8075 15.409 12.6578 15.4997 12.5392L15.8604 12.0675C15.7939 11.9255 15.7154 11.7895 15.6257 11.661L15.0369 11.7382C14.8891 11.7573 14.7397 11.7171 14.6214 11.6265C14.4814 11.5188 14.3278 11.4301 14.1647 11.3625C14.0269 11.3056 13.9174 11.1963 13.8602 11.0587L13.6322 10.5105Z" fill="#4A4C56"/>
</g>
<defs>
<clipPath id="clip0_5193_6058">
<rect width="18" height="18" fill="white"/>
</clipPath>
</defs>
</svg>
