<svg width="48" height="50" viewBox="0 0 48 50" fill="none" xmlns="http://www.w3.org/2000/svg">
<path d="M47.0212 11.0324L24.3192 0.0728002C24.2199 0.024885 24.1111 0 24.0008 0C23.8906 0 23.7817 0.024885 23.6824 0.0728002L0.980371 11.0324C0.856331 11.0923 0.751693 11.1859 0.67847 11.3026C0.605246 11.4192 0.566405 11.5542 0.566406 11.6919V38.3081C0.566405 38.4458 0.605246 38.5807 0.67847 38.6974C0.751693 38.8141 0.856331 38.9077 0.980371 38.9676L23.6823 49.9272C23.7816 49.9751 23.8905 50 24.0008 50C24.1111 50 24.2199 49.9751 24.3192 49.9272L47.0212 38.9676C47.1452 38.9077 47.2499 38.8141 47.3231 38.6974C47.3963 38.5807 47.4352 38.4458 47.4352 38.3081V11.692C47.4352 11.5543 47.3963 11.4193 47.3231 11.3026C47.2499 11.186 47.1452 11.0923 47.0212 11.0324ZM24.0008 1.54575L45.0181 11.6919L38.9256 14.6332C38.887 14.603 38.8454 14.5768 38.8016 14.555L17.927 4.47788L24.0008 1.54575ZM16.273 5.306L37.2597 15.4374L32.9613 17.5125L11.9833 7.3852L16.273 5.306ZM37.7507 16.8269V24.4974L33.7357 26.4357V18.7652L37.7507 16.8269ZM45.9703 37.8485L24.7332 48.1006V23.1112L29.7989 20.6657C29.8855 20.6238 29.9631 20.5654 30.0271 20.4936C30.0911 20.4218 30.1404 20.3381 30.172 20.2473C30.2037 20.1565 30.2172 20.0603 30.2117 19.9643C30.2062 19.8683 30.1819 19.7743 30.14 19.6876C30.0982 19.601 30.0397 19.5235 29.968 19.4595C29.8962 19.3955 29.8125 19.3462 29.7217 19.3145C29.6309 19.2829 29.5347 19.2694 29.4387 19.2749C29.3426 19.2804 29.2486 19.3047 29.162 19.3465L24.0008 21.8382L21.9699 20.8578C21.8833 20.8159 21.7893 20.7915 21.6933 20.786C21.5972 20.7805 21.5011 20.794 21.4102 20.8257C21.3194 20.8574 21.2357 20.9066 21.1639 20.9707C21.0922 21.0347 21.0337 21.1122 20.9919 21.1989C20.9501 21.2855 20.9257 21.3795 20.9202 21.4755C20.9147 21.5715 20.9282 21.6677 20.9599 21.7585C20.9916 21.8494 21.0408 21.933 21.1048 22.0048C21.1689 22.0766 21.2464 22.1351 21.333 22.1769L23.2684 23.1112V48.1006L2.03125 37.8483V12.8588L18.2031 20.666C18.3022 20.714 18.4109 20.739 18.521 20.739C18.687 20.7392 18.8481 20.683 18.978 20.5797C19.1078 20.4763 19.1988 20.3319 19.2358 20.1701C19.2729 20.0084 19.2539 19.8388 19.182 19.6892C19.1101 19.5396 18.9895 19.4189 18.8399 19.3468L2.9835 11.6919L10.2594 8.17944L32.2607 18.8008C32.264 18.8053 32.2676 18.8093 32.2709 18.8137V27.6027C32.271 27.7267 32.3025 27.8486 32.3625 27.9571C32.4225 28.0655 32.5091 28.157 32.6141 28.2229C32.7191 28.2888 32.8391 28.327 32.9628 28.3339C33.0866 28.3407 33.2101 28.3161 33.3218 28.2623L38.8016 25.6168C38.9256 25.557 39.0303 25.4633 39.1035 25.3466C39.1767 25.23 39.2155 25.095 39.2155 24.9573V16.1199L45.9703 12.8589V37.8485Z" fill="#1D1F2C"/>
<path d="M8.07383 35.0075L4.74229 33.3992C4.56736 33.3148 4.36604 33.3033 4.18263 33.3672C3.99921 33.4312 3.84872 33.5654 3.76426 33.7403C3.6798 33.9153 3.66829 34.1166 3.73226 34.3C3.79623 34.4834 3.93045 34.6339 4.10538 34.7184L7.43692 36.3267C7.536 36.3747 7.64468 36.3997 7.75479 36.3997C7.89264 36.3998 8.0277 36.361 8.14447 36.2877C8.26123 36.2144 8.35495 36.1097 8.41485 35.9856C8.45669 35.899 8.48105 35.805 8.48656 35.7089C8.49206 35.6129 8.47859 35.5167 8.44693 35.4259C8.41526 35.3351 8.36601 35.2514 8.302 35.1796C8.23798 35.1078 8.16045 35.0494 8.07383 35.0075ZM11.1399 33.0117L4.74688 29.9254C4.57236 29.8441 4.37287 29.8348 4.19154 29.8995C4.01022 29.9642 3.86165 30.0976 3.77796 30.271C3.69427 30.4444 3.68219 30.6437 3.74434 30.8259C3.80649 31.0081 3.93787 31.1586 4.11006 31.2446L10.5031 34.331C10.6022 34.379 10.7109 34.404 10.821 34.404C10.987 34.4043 11.1482 34.3481 11.2781 34.2448C11.408 34.1414 11.499 33.997 11.536 33.8351C11.5731 33.6733 11.5541 33.5037 11.4821 33.3541C11.4102 33.2045 11.2895 33.0838 11.1399 33.0117Z" fill="#1D1F2C"/>
</svg>
