<svg width="18" height="18" viewBox="0 0 18 18" fill="none" xmlns="http://www.w3.org/2000/svg">
<g clip-path="url(#clip0_5193_6070)">
<path d="M5.19102 0.0667992C5.00469 0.189846 4.95547 0.316408 4.93437 0.703127L4.91328 1.05117L3.29258 1.06172L1.67188 1.07227L1.42578 1.1918C1.10234 1.35 0.824609 1.62774 0.666406 1.95117L0.546875 2.19727V9V15.8027L0.659375 16.0348C0.863281 16.4496 1.17266 16.7273 1.60156 16.875C1.78789 16.9383 1.89687 16.9453 2.92695 16.9453H4.04492V17.3039C4.04492 17.7012 4.08359 17.8031 4.27695 17.9332C4.37539 17.9965 4.53359 18 9.00195 18C13.4703 18 13.6285 17.9965 13.727 17.9332C13.9203 17.8066 13.959 17.7012 13.959 17.3074V16.9488L15.1473 16.9383L16.332 16.9277L16.5781 16.8082C16.9016 16.65 17.1793 16.3723 17.3375 16.0488L17.457 15.8027V9V2.19727L17.3375 1.95117C17.1793 1.62774 16.9016 1.35 16.5781 1.1918L16.332 1.07227L14.7113 1.06172L13.0906 1.05117L13.0695 0.703127C13.0484 0.316408 12.9957 0.179298 12.8129 0.0667992C12.6652 -0.0246086 12.3594 -0.0246086 12.2223 0.0667992C12.0289 0.196877 11.9902 0.29883 11.9902 0.692579V1.05469H10.7598H9.5293V0.692579C9.5293 0.29883 9.49062 0.196877 9.29727 0.0667992C9.16016 -0.0246086 8.84375 -0.0246086 8.70664 0.0667992C8.51328 0.196877 8.47461 0.29883 8.47461 0.692579V1.05469H7.24414H6.01367V0.692579C6.01367 0.29883 5.975 0.196877 5.78164 0.0667992C5.64102 -0.0246086 5.32812 -0.0246086 5.19102 0.0667992ZM4.93437 2.46094C4.95547 2.85117 5.01523 2.9918 5.19805 3.10078C5.34219 3.18867 5.64805 3.18516 5.78164 3.09727C5.975 2.96719 6.01367 2.86524 6.01367 2.46797V2.10938H7.24414H8.47461V2.46797C8.47461 2.86524 8.51328 2.96719 8.70664 3.09727C8.84375 3.18867 9.16016 3.18867 9.29727 3.09727C9.49062 2.96719 9.5293 2.86524 9.5293 2.46797V2.10938H10.7598H11.9902V2.46797C11.9902 2.86524 12.0289 2.96719 12.2223 3.09727C12.3559 3.18516 12.6617 3.18867 12.8059 3.10078C12.9887 2.9918 13.0484 2.85117 13.0695 2.45742L13.0906 2.10586L14.5531 2.11641C15.9875 2.12696 16.0191 2.12696 16.1387 2.2043C16.3883 2.35899 16.4023 2.41172 16.4129 3.36445L16.427 4.21875H9.00195H1.57695L1.59102 3.36445C1.60156 2.55938 1.60508 2.50664 1.67891 2.39063C1.76328 2.25352 1.86523 2.17969 2.02344 2.14102C2.0832 2.12696 2.75469 2.11641 3.52109 2.11289L4.91328 2.10938L4.93437 2.46094ZM16.4129 10.3781C16.4023 15.416 16.4023 15.4863 16.332 15.6023C16.2934 15.6656 16.2055 15.7535 16.1387 15.7957C16.0191 15.8695 15.9734 15.873 14.9891 15.8836L13.959 15.8941V14.0133V12.1289H14.1453C14.3492 12.1289 14.4898 12.0586 14.5953 11.8969C14.6586 11.802 14.6621 11.7105 14.6621 10.5469C14.6621 9.3832 14.6586 9.2918 14.5953 9.19688C14.5602 9.14414 14.4828 9.0668 14.4301 9.03164C14.3352 8.96836 14.2437 8.96484 13.1785 8.96484C12.5422 8.96484 12.0254 8.96133 12.0254 8.9543C12.0254 8.95078 12.057 8.84531 12.0992 8.71875C12.2961 8.08242 12.1133 7.33359 11.6352 6.85898C11.2766 6.50039 10.8512 6.32813 10.3203 6.32813C9.85977 6.32813 9.44844 6.46524 9.16719 6.71484C9.10039 6.77109 9.02656 6.82031 9.00195 6.82031C8.97734 6.82031 8.90352 6.77109 8.83672 6.71484C8.55547 6.46524 8.14414 6.32813 7.68359 6.32813C7.15273 6.32813 6.71328 6.50391 6.36523 6.85898C5.89062 7.34063 5.7043 8.08594 5.90469 8.71875C5.94687 8.84531 5.97852 8.95078 5.97852 8.9543C5.97852 8.96133 5.46172 8.96484 4.82891 8.96484C3.76016 8.96484 3.66875 8.96836 3.57383 9.03164C3.52109 9.0668 3.44375 9.14414 3.40859 9.19688C3.34531 9.2918 3.3418 9.3832 3.3418 10.5469C3.3418 11.7105 3.34531 11.802 3.40859 11.8969C3.51406 12.0586 3.65469 12.1289 3.86211 12.1289H4.04492V14.0133V15.8941L3.01836 15.8836C2.03047 15.873 1.98477 15.8695 1.86523 15.7957C1.79844 15.7535 1.71055 15.6656 1.67188 15.6023C1.60156 15.4863 1.60156 15.416 1.59102 10.3781L1.58398 5.27344H9.00195H16.4199L16.4129 10.3781ZM8.01055 7.48477C8.08086 7.52344 8.18281 7.59727 8.23203 7.65352C8.41836 7.85039 8.45 7.96289 8.46758 8.48672L8.48516 8.97539L7.99648 8.95781C7.59219 8.94375 7.4832 8.92969 7.36719 8.86992C7.08242 8.72227 6.92773 8.47617 6.92773 8.17383C6.92773 7.875 7.08594 7.62539 7.36719 7.47774C7.51836 7.39688 7.84883 7.40039 8.01055 7.48477ZM10.6473 7.48477C10.9215 7.62539 11.0762 7.875 11.0762 8.17383C11.0762 8.47617 10.9215 8.72227 10.6367 8.86992C10.5207 8.92969 10.4117 8.94375 10.0074 8.95781L9.51875 8.97539L9.53633 8.48672C9.55039 8.08594 9.56797 7.97344 9.62773 7.85742C9.70859 7.69922 9.8457 7.55859 10.0039 7.47774C10.1551 7.39688 10.4855 7.40039 10.6473 7.48477ZM7.41992 10.5469V11.0742H5.9082H4.39648V10.5469V10.0195H5.9082H7.41992V10.5469ZM9.5293 13.4824V16.9453H9.00195H8.47461V13.4824V10.0195H9.00195H9.5293V13.4824ZM13.6074 10.5469V11.0742H12.0957H10.584V10.5469V10.0195H12.0957H13.6074V10.5469ZM7.41992 14.5371V16.9453H6.27734H5.13477V14.5371V12.1289H6.27734H7.41992V14.5371ZM12.8691 14.5371V16.9453H11.7266H10.584V14.5371V12.1289H11.7266H12.8691V14.5371Z" fill="#4A4C56"/>
</g>
<defs>
<clipPath id="clip0_5193_6070">
<rect width="18" height="18" fill="white"/>
</clipPath>
</defs>
</svg>
