<svg width="18" height="18" viewBox="0 0 18 18" fill="none" xmlns="http://www.w3.org/2000/svg">
<path d="M6.10469 0.957031H2.53281C1.57656 0.957031 0.789062 1.74453 0.789062 2.70078V6.27266C0.789062 7.22891 1.57656 8.01641 2.53281 8.01641H6.10469C7.06094 8.01641 7.84844 7.22891 7.84844 6.27266V2.72891C7.87656 1.74453 7.08906 0.957031 6.10469 0.957031ZM6.61094 6.30078C6.61094 6.58203 6.38594 6.80703 6.10469 6.80703H2.53281C2.25156 6.80703 2.02656 6.58203 2.02656 6.30078V2.72891C2.02656 2.44766 2.25156 2.22266 2.53281 2.22266H6.10469C6.38594 2.22266 6.61094 2.44766 6.61094 2.72891V6.30078Z" fill="#4A4C56"/>
<path d="M15.4719 0.957031H11.9C10.9438 0.957031 10.1562 1.74453 10.1562 2.70078V6.27266C10.1562 7.22891 10.9438 8.01641 11.9 8.01641H15.4719C16.4281 8.01641 17.2156 7.22891 17.2156 6.27266V2.72891C17.2156 1.74453 16.4281 0.957031 15.4719 0.957031ZM15.9781 6.30078C15.9781 6.58203 15.7531 6.80703 15.4719 6.80703H11.9C11.6188 6.80703 11.3938 6.58203 11.3938 6.30078V2.72891C11.3938 2.44766 11.6188 2.22266 11.9 2.22266H15.4719C15.7531 2.22266 15.9781 2.44766 15.9781 2.72891V6.30078Z" fill="#4A4C56"/>
<path d="M6.10469 9.92969H2.53281C1.57656 9.92969 0.789062 10.7172 0.789062 11.6734V15.2453C0.789062 16.2016 1.57656 16.9891 2.53281 16.9891H6.10469C7.06094 16.9891 7.84844 16.2016 7.84844 15.2453V11.7016C7.87656 10.7172 7.08906 9.92969 6.10469 9.92969ZM6.61094 15.2734C6.61094 15.5547 6.38594 15.7797 6.10469 15.7797H2.53281C2.25156 15.7797 2.02656 15.5547 2.02656 15.2734V11.7016C2.02656 11.4203 2.25156 11.1953 2.53281 11.1953H6.10469C6.38594 11.1953 6.61094 11.4203 6.61094 11.7016V15.2734Z" fill="#4A4C56"/>
<path d="M15.4719 9.92969H11.9C10.9438 9.92969 10.1562 10.7172 10.1562 11.6734V15.2453C10.1562 16.2016 10.9438 16.9891 11.9 16.9891H15.4719C16.4281 16.9891 17.2156 16.2016 17.2156 15.2453V11.7016C17.2156 10.7172 16.4281 9.92969 15.4719 9.92969ZM15.9781 15.2734C15.9781 15.5547 15.7531 15.7797 15.4719 15.7797H11.9C11.6188 15.7797 11.3938 15.5547 11.3938 15.2734V11.7016C11.3938 11.4203 11.6188 11.1953 11.9 11.1953H15.4719C15.7531 11.1953 15.9781 11.4203 15.9781 11.7016V15.2734Z" fill="#4A4C56"/>
</svg>
