<svg width="30" height="30" viewBox="0 0 30 30" fill="none" xmlns="http://www.w3.org/2000/svg">
<path d="M28.4486 29.3478H1.55206C1.2777 29.3478 1.01457 29.2103 0.820571 28.9657C0.626568 28.7211 0.517578 28.3893 0.517578 28.0434V1.95645C0.517578 1.61051 0.626568 1.27875 0.820571 1.03413C1.01457 0.789522 1.2777 0.6521 1.55206 0.6521H28.4486C28.723 0.6521 28.9861 0.789522 29.1801 1.03413C29.3741 1.27875 29.4831 1.61051 29.4831 1.95645V28.0434C29.4831 28.3893 29.3741 28.7211 29.1801 28.9657C28.9861 29.2103 28.723 29.3478 28.4486 29.3478Z" fill="#FAFAFA"/>
<path d="M24.3116 7.17388C24.3116 7.68983 24.1902 8.1942 23.9629 8.62319C23.7356 9.05219 23.4124 9.38656 23.0344 9.584C22.6563 9.78145 22.2403 9.83311 21.839 9.73245C21.4377 9.63179 21.069 9.38334 20.7796 9.01851C20.4903 8.65367 20.2932 8.18885 20.2134 7.68281C20.1336 7.17677 20.1746 6.65225 20.3312 6.17558C20.4877 5.6989 20.7529 5.29148 21.0932 5.00483C21.4334 4.71818 21.8334 4.56519 22.2426 4.56519C22.7913 4.56519 23.3176 4.84003 23.7056 5.32926C24.0936 5.81848 24.3116 6.48201 24.3116 7.17388ZM1.09211 28.3206L9.91831 12.5054C9.96636 12.4194 10.0302 12.3493 10.1044 12.3012C10.1786 12.253 10.2609 12.2282 10.3443 12.2288C10.4278 12.2295 10.5098 12.2555 10.5835 12.3048C10.6572 12.3541 10.7204 12.4252 10.7676 12.5119L16.0357 22.1739L20.274 15.0489C20.3223 14.9676 20.3851 14.9016 20.4572 14.8563C20.5294 14.811 20.6089 14.7876 20.6895 14.7879C20.7701 14.7882 20.8495 14.8123 20.9214 14.8581C20.9933 14.904 21.0557 14.9705 21.1037 15.0521L28.8742 28.3082C28.9303 28.4064 28.9638 28.5223 28.9709 28.643C28.978 28.7637 28.9585 28.8845 28.9146 28.9921C28.8706 29.0997 28.8039 29.1899 28.7218 29.2527C28.6398 29.3154 28.5455 29.3484 28.4495 29.3478H1.51469C1.42004 29.3477 1.32724 29.3148 1.24638 29.2527C1.16553 29.1907 1.09973 29.1019 1.05614 28.9959C1.01256 28.89 0.992868 28.771 0.999209 28.6519C1.00555 28.5329 1.03768 28.4183 1.09211 28.3206Z" fill="#E0E0E0"/>
<path d="M28.4483 0H1.55172C1.14031 0.000517966 0.745859 0.206817 0.454943 0.573624C0.164027 0.940431 0.000410801 1.43778 0 1.95652V28.0435C0.000410801 28.5622 0.164027 29.0596 0.454943 29.4264C0.745859 29.7932 1.14031 29.9995 1.55172 30H28.4483C28.8597 29.9995 29.2541 29.7932 29.5451 29.4264C29.836 29.0596 29.9996 28.5622 30 28.0435V1.95652C29.9996 1.43778 29.836 0.940431 29.5451 0.573624C29.2541 0.206817 28.8597 0.000517966 28.4483 0ZM1.66345 28.6957L10.3366 12.9L18.6884 28.6957H1.66345ZM19.9324 28.6957L16.5766 22.3493L20.6834 15.4454L28.3262 28.6957H19.9324ZM28.9655 27.587L21.5198 14.6785C21.4253 14.5127 21.3008 14.3776 21.1568 14.2843C21.0127 14.191 20.8532 14.1421 20.6912 14.1417L20.6829 14.1411C20.5222 14.1401 20.3635 14.1868 20.2197 14.2774C20.076 14.368 19.9511 14.5001 19.8553 14.6628L15.9683 21.1989L11.1972 12.1761C11.1038 11.9991 10.9774 11.8536 10.8291 11.7524C10.6807 11.6513 10.515 11.5974 10.3464 11.5957C10.1781 11.5968 10.0124 11.6483 9.86284 11.7458C9.71333 11.8432 9.58426 11.984 9.48621 12.1565L1.03448 27.5504V1.95652C1.03462 1.78361 1.08916 1.61782 1.18613 1.49556C1.2831 1.37329 1.41459 1.30452 1.55172 1.30435H28.4483C28.5854 1.30452 28.7169 1.37329 28.8139 1.49556C28.9108 1.61782 28.9654 1.78361 28.9655 1.95652V27.587ZM22.2414 3.91304C21.7299 3.91304 21.2299 4.10429 20.8046 4.4626C20.3793 4.82091 20.0478 5.33019 19.852 5.92603C19.6563 6.52188 19.6051 7.17753 19.7049 7.81008C19.8047 8.44262 20.051 9.02366 20.4127 9.4797C20.7743 9.93574 21.2352 10.2463 21.7368 10.3721C22.2385 10.4979 22.7585 10.4334 23.2311 10.1866C23.7036 9.93976 24.1076 9.5218 24.3917 8.98556C24.6759 8.44931 24.8276 7.81885 24.8276 7.17391C24.8268 6.30939 24.554 5.48058 24.0692 4.86927C23.5844 4.25797 22.927 3.91408 22.2414 3.91304ZM22.2414 9.13044C21.9345 9.13044 21.6345 9.01569 21.3793 8.8007C21.1241 8.58572 20.9252 8.28015 20.8078 7.92264C20.6903 7.56513 20.6596 7.17174 20.7195 6.79221C20.7793 6.41269 20.9271 6.06407 21.1441 5.79044C21.3612 5.51682 21.6376 5.33048 21.9387 5.25499C22.2397 5.17949 22.5517 5.21824 22.8352 5.36632C23.1187 5.51441 23.3611 5.76518 23.5316 6.08693C23.7021 6.40868 23.7931 6.78695 23.7931 7.17391C23.7927 7.69266 23.6291 8.19 23.3382 8.55681C23.0472 8.92362 22.6528 9.12992 22.2414 9.13044Z" fill="#9E9E9E"/>
</svg>
