<svg width="18" height="18" viewBox="0 0 18 18" fill="none" xmlns="http://www.w3.org/2000/svg">
<g clip-path="url(#clip0_5193_6099)">
<path d="M13.0622 10.4543C12.7516 10.4543 12.4997 10.7061 12.4997 11.0168V13.2126C12.4997 13.6367 12.1547 13.9816 11.7306 13.9816H8.78106V5.19448C8.78106 4.49951 8.4359 3.90168 7.83402 3.55416L3.62659 1.125H11.7306C12.1547 1.125 12.4997 1.46999 12.4997 1.89408V4.39864C12.4997 4.70932 12.7516 4.96114 13.0622 4.96114C13.3729 4.96114 13.6247 4.70932 13.6247 4.39864V1.89408C13.6247 0.849691 12.775 0 11.7306 0H2.85892C1.81453 0 0.964844 0.849691 0.964844 1.89408V13.7753C0.964844 14.4703 1.31001 15.0682 1.91188 15.4157L5.93995 17.7413C6.24092 17.915 6.56393 18.0019 6.88698 18.0019C7.21 18.0018 7.53312 17.915 7.83399 17.7413C8.43586 17.3938 8.78103 16.7959 8.78103 16.101V15.1066H11.7306C12.775 15.1066 13.6247 14.2569 13.6247 13.2126V11.0168C13.6247 10.7061 13.3729 10.4543 13.0622 10.4543ZM7.65606 16.101C7.65606 16.3873 7.51952 16.6238 7.27152 16.767C7.02357 16.9101 6.75044 16.9101 6.50248 16.767L2.47438 14.4414C2.22639 14.2983 2.08984 14.0617 2.08984 13.7753V1.89408C2.08984 1.78087 2.11442 1.6733 2.15854 1.57644L7.27152 4.52844C7.51952 4.6716 7.65606 4.90816 7.65606 5.19448V16.101ZM16.87 7.95108L15.0421 9.77892C14.9323 9.88875 14.7884 9.9437 14.6444 9.9437C14.5005 9.9437 14.3565 9.88875 14.2467 9.77892C14.027 9.55927 14.027 9.2031 14.2467 8.98344L15.1143 8.11582H9.94635C9.63571 8.11582 9.38385 7.864 9.38385 7.55332C9.38385 7.24264 9.63571 6.99082 9.94635 6.99082H15.1143L14.2467 6.1232C14.027 5.90354 14.027 5.54738 14.2467 5.32772C14.4664 5.10803 14.8225 5.10803 15.0422 5.32772L16.87 7.15556C17.0897 7.37525 17.0897 7.73142 16.87 7.95108Z" fill="#4A4C56"/>
</g>
<defs>
<clipPath id="clip0_5193_6099">
<rect width="18" height="18" fill="white"/>
</clipPath>
</defs>
</svg>
