<svg width="48" height="48" viewBox="0 0 48 48" fill="none" xmlns="http://www.w3.org/2000/svg">
<path fill-rule="evenodd" clip-rule="evenodd" d="M34.198 36.7177V44.8984C34.1971 45.5198 33.9499 46.1154 33.5106 46.5547C33.0712 46.994 32.4756 47.2413 31.8543 47.2422H3.10156C2.48025 47.2412 1.88467 46.994 1.44534 46.5547C1.00601 46.1153 0.758768 45.5197 0.757812 44.8984V3.10156C0.758742 2.48025 1.00597 1.88465 1.44531 1.44531C1.88464 1.00597 2.48025 0.758743 3.10156 0.757813H26.8948C27.0073 0.757693 27.1184 0.781903 27.2206 0.828781C27.3228 0.87566 27.4137 0.944097 27.4869 1.02939L33.9661 7.50039C34.0391 7.57266 34.097 7.6587 34.1364 7.75352C34.1758 7.84834 34.196 7.95004 34.1958 8.05273L34.198 18.8969L37.0152 14.0174L39.2589 10.1283C39.5013 9.70965 39.8999 9.4043 40.3673 9.27935C40.8346 9.1544 41.3325 9.22006 41.7515 9.46191L46.3296 12.1051C46.7483 12.3475 47.0536 12.7462 47.1785 13.2135C47.3035 13.6809 47.2378 14.1788 46.9959 14.5978L34.3232 36.5475C34.2894 36.6096 34.2473 36.6669 34.198 36.7177ZM20.0722 12.1111C20.5806 11.5989 20.9259 10.9475 21.0647 10.2393C21.2035 9.53104 21.1295 8.79755 20.852 8.13129C20.5746 7.46503 20.1061 6.89583 19.5056 6.49543C18.9051 6.09503 18.1996 5.88137 17.4778 5.88137C16.7561 5.88137 16.0505 6.09503 15.4501 6.49543C14.8496 6.89583 14.3811 7.46503 14.1036 8.13129C13.8262 8.79755 13.7522 9.53104 13.891 10.2393C14.0297 10.9475 14.3751 11.5989 14.8835 12.1111C13.6543 12.587 12.5791 13.3906 11.7745 14.4347C10.9699 15.4787 10.4667 16.7232 10.3196 18.033C10.298 18.1459 10.3017 18.2622 10.3303 18.3736C10.359 18.4849 10.4119 18.5886 10.4853 18.6771C10.5586 18.7656 10.6507 18.8367 10.7548 18.8855C10.8589 18.9343 10.9725 18.9594 11.0875 18.9591H23.8681V18.9567C23.9767 18.9564 24.0841 18.9335 24.1834 18.8893C24.2826 18.8452 24.3716 18.7808 24.4446 18.7003C24.5176 18.6199 24.573 18.525 24.6073 18.4219C24.6415 18.3188 24.6539 18.2097 24.6437 18.1016C24.5082 16.7787 24.0095 15.519 23.2028 14.4618C22.3961 13.4046 21.3128 12.5911 20.0726 12.1112L20.0722 12.1111ZM21.2582 14.6438C20.539 13.9957 19.6652 13.5434 18.7209 13.3304C17.7765 13.1173 16.7932 13.1505 15.8654 13.4269C14.9376 13.7033 14.0964 14.2136 13.4226 14.9088C12.7488 15.6039 12.265 16.4606 12.0177 17.3966H22.9379C22.6577 16.3351 22.074 15.3784 21.2582 14.6438ZM17.4778 7.44424C17.064 7.44424 16.6595 7.56695 16.3154 7.79686C15.9713 8.02677 15.7031 8.35354 15.5447 8.73587C15.3863 9.1182 15.3448 9.53891 15.4255 9.9448C15.5062 10.3507 15.7055 10.7235 15.9981 11.0162C16.2907 11.3088 16.6635 11.5082 17.0694 11.5889C17.4752 11.6697 17.896 11.6283 18.2783 11.47C18.6607 11.3117 18.9875 11.0436 19.2175 10.6995C19.4474 10.3555 19.5702 9.95095 19.5703 9.53711C19.5703 9.26232 19.5162 8.99021 19.4111 8.73634C19.3059 8.48246 19.1518 8.25178 18.9575 8.05747C18.7632 7.86317 18.5325 7.70904 18.2786 7.60388C18.0247 7.49873 17.7526 7.44462 17.4778 7.44463V7.44424ZM6.84307 24.7812H28.1126C28.3198 24.7812 28.5185 24.6989 28.665 24.5524C28.8115 24.4059 28.8938 24.2072 28.8938 24C28.8938 23.7928 28.8115 23.5941 28.665 23.4476C28.5185 23.3011 28.3198 23.2188 28.1126 23.2188H6.84307C6.63587 23.2188 6.43715 23.3011 6.29064 23.4476C6.14413 23.5941 6.06182 23.7928 6.06182 24C6.06182 24.2072 6.14413 24.4059 6.29064 24.5524C6.43715 24.6989 6.63587 24.7812 6.84307 24.7812ZM6.84307 32.5441H24.7544C24.9616 32.5441 25.1603 32.4618 25.3068 32.3153C25.4533 32.1688 25.5356 31.9701 25.5356 31.7629C25.5356 31.5557 25.4533 31.357 25.3068 31.2105C25.1603 31.0639 24.9616 30.9816 24.7544 30.9816H6.84307C6.63587 30.9816 6.43715 31.0639 6.29064 31.2105C6.14413 31.357 6.06182 31.5557 6.06182 31.7629C6.06182 31.9701 6.14413 32.1688 6.29064 32.3153C6.43715 32.4618 6.63587 32.5441 6.84307 32.5441ZM38.753 14.1189L43.7926 17.0285L45.6471 13.8165C45.6807 13.755 45.6892 13.6829 45.6708 13.6153C45.6524 13.5478 45.6085 13.4899 45.5483 13.454L40.9702 10.8108C40.8181 10.7229 40.6764 10.7986 40.5828 10.9495L38.753 14.1189ZM37.4896 20.5691C37.5405 20.4798 37.6086 20.4014 37.6899 20.3384C37.7712 20.2755 37.8642 20.2292 37.9635 20.2024C38.0628 20.1755 38.1664 20.1686 38.2683 20.182C38.3703 20.1953 38.4686 20.2288 38.5576 20.2803C38.6466 20.3319 38.7245 20.4005 38.7868 20.4823C38.8492 20.5641 38.8947 20.6574 38.9208 20.7569C38.9469 20.8563 38.9531 20.96 38.939 21.0619C38.9248 21.1637 38.8907 21.2618 38.8385 21.3504L31.5089 34.045L33.353 35.1095L43.0128 18.3785L37.9737 15.4689L28.3131 32.2015L30.1588 33.2669L37.4898 20.5691H37.4896ZM28.1886 38.2373L32.042 36.1521L28.0674 33.8559L28.1886 38.2373ZM27.8146 40.2125V40.2116C27.6976 40.2743 27.5665 40.306 27.4338 40.3038C27.3011 40.3016 27.1711 40.2655 27.0562 40.199C26.9413 40.1325 26.8453 40.0378 26.7773 39.9238C26.7093 39.8097 26.6716 39.6802 26.6677 39.5476L26.4738 32.5078C26.4697 32.3646 26.5054 32.223 26.5771 32.0989L32.6365 21.6035V8.83398H28.4576C27.8363 8.83303 27.2407 8.58579 26.8014 8.14646C26.3621 7.70713 26.1148 7.11154 26.1139 6.49023V2.32031H3.10156C2.89462 2.32116 2.6964 2.40374 2.55007 2.55007C2.40374 2.6964 2.32116 2.89462 2.32031 3.10156V44.8984C2.32114 45.1054 2.40371 45.3036 2.55004 45.45C2.69638 45.5963 2.89462 45.6789 3.10156 45.6797H31.854C32.0609 45.6789 32.2592 45.5963 32.4055 45.45C32.5519 45.3036 32.6344 45.1054 32.6353 44.8984V37.6035L27.8139 40.2124L27.8146 40.2125ZM6.84355 40.307H24.7544C24.9616 40.307 25.1603 40.2247 25.3068 40.0782C25.4533 39.9317 25.5356 39.733 25.5356 39.5258C25.5356 39.3186 25.4533 39.1199 25.3068 38.9734C25.1603 38.8268 24.9616 38.7445 24.7544 38.7445H6.84307C6.63587 38.7445 6.43715 38.8268 6.29064 38.9734C6.14413 39.1199 6.06182 39.3186 6.06182 39.5258C6.06182 39.733 6.14413 39.9317 6.29064 40.0782C6.43715 40.2247 6.63587 40.307 6.84307 40.307H6.84355ZM31.5321 7.27148L27.6761 3.42031V6.49023C27.6769 6.69717 27.7595 6.8954 27.9058 7.04173C28.0522 7.18805 28.2504 7.27064 28.4573 7.27148H31.5321Z" fill="#1D1F2C"/>
</svg>
