<svg width="16" height="18" viewBox="0 0 16 18" fill="none" xmlns="http://www.w3.org/2000/svg">
<path d="M8.00018 0.357147C11.6221 0.357147 14.5708 3.23992 14.6768 6.83618L14.6797 7.0367L14.6795 10.6602L15.7905 13.5234C15.8206 13.6007 15.8408 13.6813 15.851 13.7633L15.8586 13.8871C15.8586 14.4079 15.4629 14.8362 14.9558 14.8877L14.8529 14.8929L10.7513 14.8937C10.7513 16.4131 9.51958 17.6448 8.00018 17.6448C6.53143 17.6448 5.33149 16.4938 5.25313 15.0446L5.24896 14.8921L1.14466 14.8929C1.01996 14.8929 0.896346 14.8697 0.780127 14.8245C0.294811 14.6357 0.0390832 14.1117 0.174899 13.6203L0.207331 13.5226L1.32004 10.6594L1.32063 7.0367C1.32063 3.34768 4.31117 0.357147 8.00018 0.357147ZM9.56842 15.0111L9.57196 14.8921L6.42763 14.8937C6.42763 15.7622 7.13169 16.4662 8.00018 16.4662C8.8292 16.4662 9.50838 15.8247 9.56842 15.0111ZM8.00018 1.53572C5.02537 1.53572 2.60207 3.89704 2.50239 6.84758L2.4992 7.0367V10.7705C2.4992 10.8192 2.49316 10.8676 2.48129 10.9147L2.45913 10.9841L1.39704 13.7135H14.6002L13.5411 10.9837C13.5235 10.9383 13.5116 10.8911 13.5056 10.8431L13.5012 10.7705V7.0367C13.5012 3.99859 11.0383 1.53572 8.00018 1.53572Z" fill="#707070"/>
</svg>
