<svg width="18" height="18" viewBox="0 0 18 18" fill="none" xmlns="http://www.w3.org/2000/svg">
<path d="M1.59128 17.9937C1.60118 17.9946 1.60958 17.9994 1.61948 17.9994H6.91296L6.91536 18H15.0443C15.1085 17.9999 15.1711 17.9793 15.2227 17.941C15.2743 17.9027 15.3123 17.8489 15.3311 17.7874L16.9875 12.371C17.0012 12.3262 17.0042 12.2787 16.9962 12.2325C16.9883 12.1862 16.9696 12.1425 16.9417 12.1048C16.9138 12.0671 16.8775 12.0364 16.8356 12.0153C16.7938 11.9942 16.7475 11.9832 16.7007 11.9831H9.7619C9.51755 11.403 9.10762 10.9078 8.58342 10.5596C8.05921 10.2114 7.44402 10.0257 6.81485 10.0257H3.19577C1.43347 10.0257 0 11.4614 0 13.2264V16.3787C0 16.389 0.00480026 16.3974 0.00570031 16.4073C0.0335021 16.8189 0.20948 17.2065 0.501025 17.4983C0.79257 17.79 1.17991 17.9661 1.59128 17.994V17.9937ZM14.8226 17.3995H7.32098L8.79375 12.5836H16.2953L14.8226 17.3995ZM0.600031 13.2264C0.600031 11.7928 1.76469 10.6261 3.19577 10.6261H6.81485C7.28191 10.6263 7.74029 10.7525 8.14179 10.9913C8.54329 11.2301 8.87307 11.5727 9.09647 11.9831H8.57174C8.50749 11.9832 8.44495 12.0038 8.39332 12.0421C8.34168 12.0804 8.30369 12.1342 8.28493 12.1957L6.69395 17.3989H6.07621C6.27242 17.1377 6.37593 16.8279 6.35823 16.5042C6.33926 16.1554 6.192 15.8259 5.94481 15.5792C5.81345 15.447 5.6572 15.3422 5.4851 15.2708C5.31299 15.1995 5.12845 15.163 4.94216 15.1634H3.08386V13.538C3.08386 13.4584 3.05225 13.382 2.99599 13.3257C2.93972 13.2694 2.86341 13.2378 2.78384 13.2378C2.70427 13.2378 2.62796 13.2694 2.5717 13.3257C2.51544 13.382 2.48383 13.4584 2.48383 13.538V15.2424C2.48383 15.53 2.71754 15.7639 3.00496 15.7639H4.94216C5.16057 15.7639 5.36578 15.8491 5.52059 16.0038C5.66311 16.1459 5.74816 16.3356 5.7594 16.5367C5.7708 16.7486 5.69249 16.9546 5.53889 17.117C5.45474 17.2057 5.35346 17.2764 5.24119 17.3249C5.12892 17.3733 5.008 17.3984 4.88575 17.3986H1.70439C1.41159 17.3983 1.13088 17.2818 0.923841 17.0746C0.716802 16.8674 0.600349 16.5865 0.600031 16.2935V13.2264ZM5.00576 9.74257C6.55984 9.74257 7.8241 8.47742 7.8241 6.92255C7.8241 5.36769 6.55984 4.10254 5.00576 4.10254C3.45168 4.10254 2.18771 5.36769 2.18771 6.92255C2.18771 8.47742 3.45198 9.74257 5.00576 9.74257ZM5.00576 4.70299C6.22892 4.70299 7.22407 5.69854 7.22407 6.92255C7.22407 8.14657 6.22922 9.14212 5.00576 9.14212C3.7823 9.14212 2.78774 8.14657 2.78774 6.92255C2.78774 5.69854 3.7826 4.70299 5.00576 4.70299Z" fill="#4A4C56"/>
<path d="M10.9817 0C8.52215 0 6.28433 1.25434 4.99547 3.35562C4.95385 3.4235 4.94089 3.50514 4.95943 3.58258C4.97797 3.66003 5.02649 3.72693 5.09432 3.76858C5.16216 3.81022 5.24374 3.82319 5.32113 3.80464C5.39852 3.78609 5.46538 3.73753 5.50699 3.66965C6.68576 1.74791 8.73216 0.60045 10.9817 0.60045C14.5201 0.60045 17.399 3.48141 17.399 7.02227C17.3997 8.54913 16.8549 10.0259 15.8629 11.1861C15.8373 11.216 15.8178 11.2507 15.8055 11.2882C15.7933 11.3257 15.7885 11.3652 15.7916 11.4046C15.7946 11.4439 15.8053 11.4822 15.8231 11.5174C15.841 11.5526 15.8656 11.5839 15.8955 11.6096C15.9254 11.6352 15.9601 11.6547 15.9975 11.667C16.035 11.6792 16.0745 11.684 16.1138 11.681C16.1531 11.6779 16.1914 11.6672 16.2266 11.6494C16.2617 11.6315 16.293 11.6069 16.3187 11.577C17.4035 10.3078 17.9995 8.69243 17.999 7.02227C17.999 3.15026 14.8513 0 10.9817 0Z" fill="#4A4C56"/>
<path d="M13.9758 11.1386C13.9114 11.1854 13.8683 11.2559 13.8558 11.3346C13.8434 11.4132 13.8627 11.4936 13.9095 11.558C13.9563 11.6224 14.0267 11.6656 14.1053 11.6781C14.1839 11.6905 14.2642 11.6712 14.3286 11.6244C15.0536 11.0959 15.6436 10.4037 16.0509 9.604C16.4581 8.80432 16.671 7.91976 16.6723 7.02222C16.6723 3.88337 14.1204 1.32996 10.984 1.32996C10.0765 1.33006 9.18223 1.54768 8.376 1.9646C7.56977 2.38153 6.87506 2.98563 6.35 3.72635C6.32725 3.75854 6.31105 3.79491 6.30234 3.83336C6.29363 3.87181 6.29258 3.91161 6.29924 3.95047C6.3059 3.98933 6.32014 4.0265 6.34115 4.05986C6.36216 4.09321 6.38954 4.1221 6.42171 4.14487C6.48667 4.19085 6.56723 4.20912 6.64567 4.19567C6.6845 4.189 6.72165 4.17475 6.75498 4.15372C6.78831 4.1327 6.81717 4.10531 6.83993 4.07311C7.30948 3.41072 7.93075 2.87049 8.65174 2.49766C9.37273 2.12482 10.1725 1.9302 10.984 1.93011C13.7898 1.93011 16.0723 4.21422 16.0723 7.02192C16.0712 7.82474 15.8807 8.61596 15.5164 9.33124C15.1521 10.0465 14.6243 10.6657 13.9758 11.1383V11.1386Z" fill="#4A4C56"/>
<path d="M10.7715 7.31824L12.5872 9.1352C12.615 9.16318 12.648 9.18538 12.6844 9.20053C12.7208 9.21568 12.7599 9.22348 12.7993 9.22348C12.8387 9.22348 12.8778 9.21568 12.9142 9.20053C12.9506 9.18538 12.9836 9.16318 13.0114 9.1352C13.0393 9.10735 13.0614 9.07426 13.0765 9.03784C13.0916 9.00142 13.0994 8.96237 13.0994 8.92294C13.0994 8.88352 13.0916 8.84447 13.0765 8.80805C13.0614 8.77163 13.0393 8.73854 13.0114 8.71069L11.2836 6.98169V3.41021C11.2836 3.33059 11.252 3.25422 11.1958 3.19792C11.1395 3.14162 11.0632 3.10999 10.9836 3.10999C10.904 3.10999 10.8277 3.14162 10.7715 3.19792C10.7152 3.25422 10.6836 3.33059 10.6836 3.41021V7.02162C10.6836 7.03633 10.6899 7.04894 10.692 7.06305C10.6842 7.10885 10.6874 7.15583 10.7012 7.20017C10.715 7.24451 10.7391 7.28497 10.7715 7.31824Z" fill="#4A4C56"/>
</svg>
