<svg width="18" height="17" viewBox="0 0 18 17" fill="none" xmlns="http://www.w3.org/2000/svg">
<path d="M15.1506 11.1129L14.727 11.3214C14.7119 11.2809 14.695 11.2412 14.676 11.2022C14.3698 10.5796 13.6143 10.3222 12.9913 10.6284L11.1917 11.514C9.45531 11.0493 7.71965 10.5845 5.98398 10.1187C5.16027 9.89824 4.37453 10.0125 3.64855 10.4586L2.68351 11.0517L2.56258 10.6478C2.52109 10.511 2.42863 10.3985 2.30277 10.3307C2.17586 10.2625 2.03031 10.2477 1.89426 10.2888L0.382888 10.7409C0.100232 10.8246 -0.0618383 11.1241 0.0221852 11.41L0.268279 12.2302C0.312927 12.3789 0.469373 12.4632 0.618084 12.4186C0.766795 12.3739 0.85117 12.2171 0.806521 12.0688L0.567459 11.2725L2.03136 10.8345L2.24582 11.5502C2.24758 11.558 2.25004 11.5657 2.25285 11.5731L3.48121 15.6755L2.01836 16.1132L1.05894 12.9118C1.01429 12.7631 0.857849 12.6787 0.709138 12.7234C0.560427 12.768 0.476052 12.9245 0.520701 13.0732L1.48715 16.2981C1.52793 16.4355 1.62004 16.5491 1.74695 16.6173C1.8264 16.6602 1.91359 16.682 2.00078 16.682C2.05246 16.682 2.10449 16.6743 2.15511 16.6591L3.66613 16.207C3.80359 16.1662 3.91679 16.0741 3.985 15.9476C4.05355 15.8207 4.06832 15.6751 4.02683 15.538L3.92066 15.1833L8.44457 16.3955C8.71562 16.4682 8.98035 16.5045 9.24086 16.5045C9.68172 16.5045 10.1099 16.4004 10.5357 16.1909C11.5243 15.7043 12.5128 15.2177 13.5014 14.7308L16.263 13.3713C16.8856 13.0651 17.1429 12.3096 16.8364 11.6863C16.5291 11.064 15.7729 10.807 15.1506 11.1129ZM13.2392 11.1329C13.5837 10.9635 14.0021 11.1059 14.1715 11.4504C14.1909 11.4898 14.2063 11.5305 14.2176 11.5724L12.1536 12.5884C12.1345 12.4354 12.0878 12.2871 12.0157 12.1507C11.9556 12.0375 11.8786 11.9352 11.789 11.8462L13.2392 11.1329ZM16.3653 12.4661C16.3052 12.6429 16.1807 12.7853 16.0148 12.8668L13.2532 14.2263C12.2646 14.7129 11.2764 15.1995 10.2878 15.686C9.73797 15.9564 9.1825 16.0109 8.59012 15.852L3.73152 14.5501L2.85086 11.6086L3.94316 10.9375C4.53238 10.5754 5.17011 10.4825 5.83879 10.6615C7.58781 11.1308 9.33683 11.5991 11.0866 12.0677C11.2743 12.1184 11.4283 12.2414 11.52 12.4144C11.6062 12.5764 11.6248 12.7593 11.5752 12.9326C11.526 13.1059 11.4128 13.2514 11.2543 13.3429C11.0925 13.4364 10.9048 13.4613 10.7259 13.4132L7.58359 12.5712C7.43383 12.5311 7.27949 12.62 7.23941 12.7698C7.19933 12.9196 7.28828 13.0739 7.43804 13.114L10.58 13.956C10.6879 13.9852 10.7976 13.9992 10.9066 13.9992C11.1249 13.9992 11.3404 13.9419 11.5352 13.8294C11.7644 13.6969 11.9419 13.5011 12.0495 13.2659L15.3992 11.6167C15.7381 11.45 16.1656 11.5956 16.3326 11.9338C16.4134 12.1004 16.4254 12.2892 16.3653 12.4661ZM8.19004 5.05898C8.19004 5.39121 7.97136 5.67492 7.6648 5.78461V5.89113C7.6648 6.04652 7.53894 6.17203 7.3839 6.17203C7.22886 6.17203 7.10301 6.04617 7.10301 5.89113V5.78426C6.87976 5.7048 6.69941 5.53254 6.62066 5.30719C6.59605 5.23684 6.60036 5.15959 6.63266 5.09242C6.66496 5.02525 6.72261 4.97364 6.79293 4.94894C6.86328 4.92433 6.94052 4.92865 7.0077 4.96095C7.07487 4.99325 7.12647 5.05089 7.15117 5.12121C7.18211 5.20945 7.27773 5.27098 7.38426 5.27098C7.51644 5.27098 7.62824 5.17394 7.62824 5.05863C7.62824 4.94297 7.51644 4.84523 7.38426 4.84523H7.35824C7.33469 4.84523 7.31148 4.84207 7.28969 4.83644C6.90261 4.77984 6.60484 4.45816 6.60484 4.07074C6.60484 3.73816 6.82351 3.4541 7.13008 3.34406V3.23859C7.13008 3.0832 7.25594 2.9577 7.41097 2.9577C7.56601 2.9577 7.69187 3.08355 7.69187 3.23859V3.34477C7.91406 3.42457 8.09406 3.59613 8.17386 3.82113C8.2259 3.96738 8.14926 4.12805 8.00301 4.18008C7.85676 4.23211 7.69609 4.15547 7.64406 4.00922C7.61242 3.91992 7.51644 3.85734 7.41062 3.85734C7.27844 3.85734 7.16629 3.95508 7.16629 4.07074C7.16629 4.1857 7.27808 4.28309 7.41062 4.28309H7.43558C7.45914 4.28309 7.48164 4.28625 7.50344 4.29152C7.89156 4.34777 8.19004 4.67051 8.19004 5.05898ZM17.19 3.24211H10.8739C10.8398 3.15316 10.8078 3.07687 10.7751 3.00727C10.7673 2.99074 10.7677 2.98125 10.7754 2.96613L11.075 2.37973C11.1945 2.14277 11.1484 1.85871 10.9621 1.67414L10.2875 0.998437C10.0997 0.812461 9.81566 0.768164 9.58152 0.887695L8.99406 1.18652C8.97754 1.19496 8.96945 1.19391 8.95504 1.18723C8.86433 1.14539 8.77293 1.10742 8.68363 1.07473C8.66711 1.06875 8.66113 1.06242 8.65551 1.0452L8.45265 0.421875C8.37215 0.169453 8.13976 0 7.87398 0H6.92019C6.65582 0 6.42308 0.16875 6.34117 0.420469L6.13761 1.0459C6.13234 1.06242 6.12637 1.06875 6.11054 1.07473C6.01875 1.10822 5.92843 1.14563 5.83984 1.18687C5.82191 1.19496 5.81277 1.19355 5.79836 1.18617L5.21371 0.888398C5.09924 0.829515 4.969 0.808576 4.84184 0.828611C4.71468 0.848645 4.59719 0.908615 4.50636 0.999844L3.83172 1.67414C3.74052 1.76491 3.68056 1.88234 3.66053 2.00944C3.64049 2.13653 3.66142 2.26671 3.72027 2.38113L4.01769 2.96543C4.02578 2.9816 4.02613 2.99109 4.01734 3.01008C3.9741 3.10605 3.93789 3.19359 3.90625 3.27797C3.90027 3.29414 3.89359 3.30012 3.87636 3.30574L3.25234 3.50895C3.00062 3.59121 2.83117 3.82395 2.83117 4.08797V5.04176C2.83117 5.30578 3.00027 5.53852 3.25269 5.62113L3.87672 5.82363C3.89324 5.82891 3.89957 5.83488 3.9059 5.85246C3.93719 5.93684 3.9734 6.02437 4.01804 6.12281C4.02578 6.13933 4.02543 6.14883 4.01769 6.1643L3.71992 6.74894C3.59969 6.98344 3.64398 7.2675 3.83136 7.45664L4.50496 8.12918C4.59553 8.22112 4.71313 8.2817 4.84058 8.30206C4.96802 8.32243 5.09864 8.30152 5.21336 8.24238L5.7973 7.94391C5.81347 7.93582 5.82297 7.93547 5.83808 7.9425C5.92668 7.98398 6.01844 8.0223 6.10984 8.05535C6.12636 8.06133 6.13234 8.06766 6.13797 8.08488L6.34117 8.70996C6.38082 8.83224 6.45823 8.9388 6.56228 9.01429C6.66633 9.08979 6.79164 9.13033 6.92019 9.13008H7.87398C8.13976 9.13008 8.37215 8.96062 8.4523 8.70961L8.65586 8.08418C8.66113 8.06766 8.66711 8.06133 8.68293 8.05535C8.755 8.02898 8.82777 7.99875 8.90054 7.96641V8.32043C8.90054 8.76656 9.26371 9.12973 9.70984 9.12973H11.3492C11.5042 9.12973 11.6301 9.00387 11.6301 8.84883C11.6301 8.69379 11.5042 8.56793 11.3492 8.56793H9.70984C9.57344 8.56793 9.46269 8.45719 9.46269 8.32078V5.78461H17.4372V8.32078C17.4372 8.45719 17.3264 8.56793 17.19 8.56793H12.2281C12.0727 8.56793 11.9472 8.69379 11.9472 8.84883C11.9472 9.00387 12.073 9.12973 12.2281 9.12973H17.19C17.6362 9.12973 17.9993 8.76656 17.9993 8.32043V4.05141C17.9993 3.60527 17.6362 3.24211 17.19 3.24211ZM17.4372 4.05141V4.23281H9.46269V4.05141C9.46269 3.91746 9.5759 3.80426 9.70984 3.80426H17.19C17.3264 3.80426 17.4372 3.915 17.4372 4.05141ZM8.9009 4.05141V5.77863C8.53562 6.23039 7.98015 6.49793 7.39726 6.49793C6.33168 6.49793 5.46508 5.63062 5.46508 4.56469C5.46508 3.4991 6.33203 2.6325 7.39726 2.6325C8.07859 2.6325 8.7107 2.99707 9.05699 3.57504C8.95855 3.70863 8.9009 3.87316 8.9009 4.05141ZM8.71879 7.43273C8.64387 7.4676 8.56752 7.49927 8.48992 7.52766C8.31062 7.5934 8.17984 7.7298 8.12113 7.91086L7.91722 8.53734C7.9109 8.55773 7.89613 8.56793 7.87398 8.56793H6.92019C6.89734 8.56793 6.88258 8.55738 6.87554 8.53594L6.67234 7.91156C6.61363 7.7298 6.4825 7.59375 6.30285 7.52766C6.22656 7.49988 6.15062 7.46824 6.07539 7.43308C5.90242 7.35293 5.71363 7.35644 5.54242 7.44293L4.95742 7.74176C4.93773 7.75195 4.9198 7.74914 4.90328 7.73226L4.22969 7.05973C4.21316 7.04285 4.21 7.02492 4.22054 7.00418L4.51902 6.41848C4.6048 6.24832 4.60832 6.05953 4.52922 5.88902C4.49458 5.81304 4.46257 5.73588 4.43324 5.65769C4.3675 5.47875 4.23109 5.34762 4.04969 5.28891L3.42636 5.08676C3.40422 5.07937 3.39297 5.06461 3.39297 5.04211V4.08832C3.39297 4.06582 3.40422 4.0507 3.42636 4.04367L4.04969 3.84047C4.23074 3.78176 4.36679 3.65168 4.43289 3.47379C4.45996 3.40137 4.49125 3.32543 4.52816 3.24387C4.60832 3.0709 4.6048 2.88211 4.51867 2.71125L4.22054 2.1259C4.21035 2.10621 4.21316 2.08758 4.22898 2.07211L4.90363 1.39746C4.9191 1.38199 4.93773 1.37883 4.95812 1.38937L5.54172 1.6868C5.71082 1.77398 5.89961 1.7782 6.07504 1.69805C6.15133 1.66254 6.22832 1.6309 6.3039 1.60312C6.4832 1.53738 6.61398 1.40098 6.67269 1.21992L6.8759 0.595195C6.88293 0.573398 6.89769 0.562852 6.92054 0.562852H7.87433C7.89648 0.562852 7.9109 0.573047 7.91793 0.595195L8.12113 1.21957C8.17984 1.40133 8.31097 1.53738 8.49062 1.60348C8.56586 1.6309 8.6425 1.66289 8.71808 1.6977C8.89176 1.77891 9.08125 1.77504 9.2507 1.6875L9.83711 1.38937C9.8575 1.37918 9.87543 1.38199 9.8909 1.39746L10.5655 2.07316C10.5849 2.09215 10.5803 2.11324 10.574 2.12625L10.2745 2.7123C10.189 2.88141 10.1855 3.06914 10.2646 3.24246H9.70984C9.64621 3.24246 9.58469 3.2502 9.52527 3.26391C9.07562 2.53125 8.26738 2.07035 7.39691 2.07035C6.0216 2.07035 4.90258 3.18937 4.90258 4.56469C4.90258 5.9407 6.0216 7.06008 7.39691 7.06008C7.94394 7.06008 8.47199 6.87797 8.90054 6.55488V7.38105C8.83937 7.38844 8.7782 7.40531 8.71879 7.43273ZM9.46269 5.22246V4.79496H17.4372V5.22246H9.46269ZM16.3139 8.07363C16.5414 8.07363 16.7267 7.88871 16.7267 7.6609V6.69234C16.7267 6.46418 16.5418 6.27891 16.3139 6.27891H15.3454C15.1179 6.27891 14.9327 6.46453 14.9327 6.69234V7.6609C14.9327 7.88836 15.1176 8.07363 15.3454 8.07363H16.3139ZM15.4948 6.8407H16.1645V7.51148H15.4948V6.8407Z" fill="#4A4C56"/>
</svg>
