<svg width="18" height="18" viewBox="0 0 18 18" fill="none" xmlns="http://www.w3.org/2000/svg">
<g clip-path="url(#clip0_5193_6089)">
<path d="M7.07599 0.049221C6.7174 0.16172 6.39044 0.453518 6.23576 0.787502C6.18302 0.900002 6.11271 1.20938 6.0424 1.60313C5.98263 1.94766 5.9088 2.2957 5.87365 2.37656C5.71896 2.72461 5.38497 2.95313 4.99122 2.98125C4.77677 2.99531 4.72755 2.98125 4.1299 2.75625C3.51115 2.52422 3.49005 2.51719 3.1631 2.51719C2.69904 2.51719 2.48458 2.60508 2.17872 2.91445C1.98185 3.11485 1.84474 3.3293 1.20138 4.45781C0.786537 5.17852 0.420912 5.82539 0.385756 5.89922C0.209975 6.26133 0.224037 6.75 0.420912 7.1332C0.547475 7.38281 0.635365 7.4707 1.18732 7.92774C1.77443 8.41289 1.89396 8.59219 1.89396 9C1.89396 9.40781 1.77443 9.58711 1.18732 10.0723C0.635365 10.5293 0.547475 10.6207 0.420912 10.8668C0.280287 11.141 0.231068 11.4469 0.280287 11.7352C0.329506 12.0305 0.315443 12.0023 1.20138 13.5422C1.84474 14.6707 1.98185 14.8852 2.17872 15.0855C2.48458 15.3949 2.69904 15.4828 3.1631 15.4828C3.49005 15.4828 3.51115 15.4758 4.1299 15.2438C4.72755 15.0188 4.77677 15.0047 4.99122 15.0188C5.38497 15.0469 5.71896 15.2754 5.87365 15.6234C5.9088 15.7043 5.98263 16.0523 6.0424 16.3969C6.11271 16.7977 6.18302 17.1 6.23927 17.216C6.35177 17.4621 6.65763 17.768 6.91427 17.8875L7.11818 17.9824H8.99904H10.8799L11.0838 17.8875C11.3404 17.768 11.6463 17.4621 11.7588 17.216C11.8151 17.1 11.8854 16.7977 11.9557 16.3969C12.0154 16.0523 12.0893 15.7043 12.1244 15.6234C12.2791 15.2754 12.6131 15.0469 13.0068 15.0188C13.2213 15.0047 13.2705 15.0188 13.8682 15.2438C14.4869 15.4758 14.508 15.4828 14.835 15.4828C15.299 15.4828 15.5135 15.3949 15.8193 15.0855C16.0162 14.8852 16.1533 14.6707 16.7967 13.5492C17.208 12.832 17.5736 12.1816 17.6088 12.1043C17.7846 11.7457 17.7705 11.2465 17.5772 10.8703C17.4506 10.6172 17.3627 10.5293 16.8108 10.0723C16.2236 9.58711 16.1041 9.40781 16.1041 9C16.1041 8.60977 16.2307 8.40234 16.7158 8.00859C17.4717 7.38984 17.644 7.16484 17.7178 6.69727C17.76 6.43008 17.7178 6.1207 17.6088 5.8957C17.5736 5.81836 17.208 5.16797 16.7967 4.45078C16.1533 3.3293 16.0162 3.11485 15.8193 2.91445C15.5135 2.60508 15.299 2.51719 14.835 2.51719C14.508 2.51719 14.4869 2.52422 13.8682 2.75625C13.2705 2.98125 13.2213 2.99531 13.0068 2.98125C12.6131 2.95313 12.2791 2.72461 12.1244 2.37656C12.0893 2.2957 12.0154 1.94766 11.9557 1.59961C11.8713 1.11797 11.8221 0.914064 11.7412 0.748829C11.6147 0.492189 11.3545 0.24258 11.0733 0.108986L10.8799 0.01758L9.05177 0.0105476C7.61037 0.00351715 7.19201 0.0140648 7.07599 0.049221ZM10.5424 1.92305C10.6373 2.5207 10.7428 2.88633 10.9045 3.17461C11.3404 3.94805 12.1666 4.42969 13.0596 4.42969C13.4428 4.42969 13.7205 4.36289 14.3639 4.12383L14.8244 3.94805L15.5557 5.21367C16.1604 6.26133 16.2764 6.48281 16.2377 6.51797C16.2096 6.54258 16.0092 6.70781 15.7947 6.88711C15.285 7.30547 15.1127 7.50235 14.9193 7.89258C14.7365 8.26172 14.6592 8.58516 14.6592 9C14.6592 9.41484 14.7365 9.73828 14.9193 10.1074C15.1127 10.4977 15.285 10.6945 15.7947 11.1129C16.0092 11.2922 16.2096 11.4574 16.2377 11.482C16.2764 11.5172 16.1604 11.7387 15.5557 12.7863L14.8244 14.052L14.3639 13.8762C13.7205 13.6371 13.4428 13.5703 13.0596 13.5703C11.9733 13.5703 11.0346 14.2559 10.7076 15.293C10.6619 15.4371 10.5881 15.7887 10.5424 16.0734L10.4615 16.5938H8.99904H7.53654L7.45568 16.077C7.40997 15.7887 7.33615 15.4371 7.29044 15.293C6.96349 14.2559 6.02482 13.5703 4.93849 13.5703C4.55529 13.5703 4.27755 13.6371 3.63419 13.8762L3.17365 14.052L2.4424 12.7863C1.84122 11.7422 1.72169 11.5172 1.76037 11.482C1.78849 11.4574 1.98888 11.2922 2.20333 11.1129C2.7131 10.6945 2.88537 10.4977 3.07872 10.1074C3.26154 9.73828 3.33888 9.41484 3.33888 9C3.33888 8.58516 3.26154 8.26172 3.07872 7.89258C2.88537 7.50235 2.7131 7.30547 2.20333 6.88711C1.98888 6.70781 1.78849 6.54258 1.76037 6.51797C1.72169 6.48281 1.84122 6.25781 2.4424 5.21367L3.17365 3.95156L3.67638 4.13789C4.38302 4.40156 4.57638 4.44024 5.04396 4.41914C5.72599 4.39102 6.27443 4.14141 6.74904 3.63516C7.14982 3.20977 7.31505 2.80899 7.45568 1.92305L7.53654 1.40625H8.99904H10.4615L10.5424 1.92305Z" fill="#4A4C56"/>
<path d="M8.29688 5.58985C6.65508 5.94141 5.51953 7.33711 5.51953 9C5.51953 10.6981 6.72539 12.1359 8.3918 12.4277C10.5328 12.8004 12.4805 11.1691 12.4805 9C12.4805 7.3125 11.2992 5.88868 9.63281 5.57579C9.24961 5.50196 8.67305 5.50899 8.29688 5.58985ZM9.52734 7.03477C9.88594 7.13321 10.0969 7.25274 10.3816 7.51993C11.2184 8.30743 11.2605 9.55196 10.4801 10.3816C9.68906 11.2184 8.44805 11.2606 7.61836 10.4801C6.73945 9.65039 6.73945 8.3461 7.61836 7.51993C8.1457 7.02422 8.84883 6.84493 9.52734 7.03477Z" fill="#4A4C56"/>
</g>
<defs>
<clipPath id="clip0_5193_6089">
<rect width="18" height="18" fill="white"/>
</clipPath>
</defs>
</svg>
