<svg width="18" height="18" viewBox="0 0 18 18" fill="none" xmlns="http://www.w3.org/2000/svg">
<path fill-rule="evenodd" clip-rule="evenodd" d="M1.5 1.25132e-08C1.36834 -2.68666e-05 1.24033 0.0432505 1.1357 0.123161C1.03107 0.203071 0.955627 0.315178 0.921002 0.4422L0.0210017 3.7422C0.00702389 3.79363 -3.82262e-05 3.8467 1.69961e-06 3.9C-0.000425128 4.27994 0.0795456 4.65567 0.23466 5.00251C0.389774 5.34934 0.61652 5.65943 0.900002 5.9124V15C0.900002 16.6569 2.2431 18 3.9 18H9C9.15913 18 9.31174 17.9368 9.42426 17.8243C9.53679 17.7117 9.6 17.5591 9.6 17.4C9.6 17.2409 9.53679 17.0883 9.42426 16.9757C9.31174 16.8632 9.15913 16.8 9 16.8H3.9C3.42261 16.8 2.96477 16.6104 2.62721 16.2728C2.28964 15.9352 2.1 15.4774 2.1 15V6.5331C2.29689 6.57768 2.49813 6.60012 2.7 6.6C3.10273 6.60037 3.50042 6.51047 3.86384 6.33691C4.22725 6.16336 4.54715 5.91056 4.8 5.5971C5.295 6.2091 6.0519 6.6 6.9 6.6C7.7481 6.6 8.505 6.2088 9 5.5971C9.495 6.2091 10.2519 6.6 11.1 6.6C11.9481 6.6 12.705 6.2088 13.2 5.5971C13.4529 5.91056 13.7727 6.16336 14.1362 6.33691C14.4996 6.51047 14.8973 6.60037 15.3 6.6C15.5061 6.6 15.7071 6.5769 15.9 6.5331V9.45C15.9 9.60913 15.9632 9.76174 16.0757 9.87426C16.1883 9.98679 16.3409 10.05 16.5 10.05C16.6591 10.05 16.8117 9.98679 16.9243 9.87426C17.0368 9.76174 17.1 9.60913 17.1 9.45V5.9124C17.3835 5.65942 17.6102 5.34933 17.7653 5.0025C17.9204 4.65566 18.0004 4.27994 18 3.9C18 3.8466 17.9928 3.7935 17.979 3.7422L17.079 0.4422C17.0444 0.315178 16.9689 0.203071 16.8643 0.123161C16.7597 0.0432505 16.6317 -2.68666e-05 16.5 1.25132e-08H1.5ZM6.9 5.4C6.50218 5.4 6.12065 5.24196 5.83934 4.96066C5.55804 4.67936 5.4 4.29782 5.4 3.9C5.4 3.74087 5.33679 3.58826 5.22426 3.47574C5.11174 3.36321 4.95913 3.3 4.8 3.3C4.64087 3.3 4.48826 3.36321 4.37574 3.47574C4.26322 3.58826 4.2 3.74087 4.2 3.9C4.20009 4.29149 4.04712 4.6675 3.77375 4.94775C3.50038 5.22799 3.12828 5.39025 2.73691 5.39988C2.34554 5.40952 1.96591 5.26576 1.67909 4.99931C1.39226 4.73285 1.22097 4.36482 1.2018 3.9738L1.9584 1.2H16.0416L16.7982 3.9738C16.779 4.36482 16.6077 4.73285 16.3209 4.99931C16.0341 5.26576 15.6545 5.40952 15.2631 5.39988C14.8717 5.39025 14.4996 5.22799 14.2263 4.94775C13.9529 4.6675 13.7999 4.29149 13.8 3.9C13.8 3.74087 13.7368 3.58826 13.6243 3.47574C13.5117 3.36321 13.3591 3.3 13.2 3.3C13.0409 3.3 12.8883 3.36321 12.7757 3.47574C12.6632 3.58826 12.6 3.74087 12.6 3.9C12.6 4.29782 12.442 4.67936 12.1607 4.96066C11.8794 5.24196 11.4978 5.4 11.1 5.4C10.7022 5.4 10.3206 5.24196 10.0393 4.96066C9.75803 4.67936 9.6 4.29782 9.6 3.9C9.6 3.74087 9.53679 3.58826 9.42426 3.47574C9.31174 3.36321 9.15913 3.3 9 3.3C8.84087 3.3 8.68826 3.36321 8.57574 3.47574C8.46321 3.58826 8.4 3.74087 8.4 3.9C8.4 4.29782 8.24197 4.67936 7.96066 4.96066C7.67936 5.24196 7.29783 5.4 6.9 5.4Z" fill="#4A4C56"/>
<path fill-rule="evenodd" clip-rule="evenodd" d="M16.4992 12.2999C16.5001 12.9011 16.2745 13.4806 15.8674 13.9229C16.509 14.2493 17.0478 14.7469 17.424 15.3606C17.8003 15.9743 17.9994 16.6801 17.9992 17.3999C17.9992 17.5591 17.936 17.7117 17.8235 17.8242C17.711 17.9367 17.5583 17.9999 17.3992 17.9999C17.2401 17.9999 17.0875 17.9367 16.975 17.8242C16.8624 17.7117 16.7992 17.5591 16.7992 17.3999C16.7992 17.0454 16.7294 16.6943 16.5937 16.3667C16.458 16.0391 16.2591 15.7415 16.0084 15.4908C15.7577 15.24 15.46 15.0412 15.1325 14.9055C14.8049 14.7698 14.4538 14.6999 14.0992 14.6999C13.7446 14.6999 13.3936 14.7698 13.066 14.9055C12.7384 15.0412 12.4407 15.24 12.19 15.4908C11.9393 15.7415 11.7404 16.0391 11.6047 16.3667C11.4691 16.6943 11.3992 17.0454 11.3992 17.3999C11.3992 17.5591 11.336 17.7117 11.2235 17.8242C11.111 17.9367 10.9583 17.9999 10.7992 17.9999C10.6401 17.9999 10.4875 17.9367 10.375 17.8242C10.2624 17.7117 10.1992 17.5591 10.1992 17.3999C10.1991 16.6801 10.3981 15.9743 10.7744 15.3606C11.1506 14.7469 11.6894 14.2493 12.331 13.9229C12.0671 13.6354 11.8773 13.2878 11.7781 12.9103C11.6788 12.5328 11.6732 12.1368 11.7616 11.7566C11.85 11.3764 12.0298 11.0235 12.2854 10.7285C12.541 10.4335 12.8647 10.2053 13.2284 10.0637C13.5921 9.92208 13.9849 9.8713 14.3727 9.91578C14.7605 9.96025 15.1315 10.0986 15.4538 10.3189C15.776 10.5392 16.0396 10.8348 16.2218 11.18C16.404 11.5252 16.4992 11.9096 16.4992 12.2999ZM12.8992 12.2999C12.8992 11.9817 13.0256 11.6765 13.2507 11.4514C13.4757 11.2264 13.781 11.0999 14.0992 11.0999C14.4175 11.0999 14.7227 11.2264 14.9477 11.4514C15.1728 11.6765 15.2992 11.9817 15.2992 12.2999C15.2992 12.6182 15.1728 12.9234 14.9477 13.1485C14.7227 13.3735 14.4175 13.4999 14.0992 13.4999C13.781 13.4999 13.4757 13.3735 13.2507 13.1485C13.0256 12.9234 12.8992 12.6182 12.8992 12.2999Z" fill="#4A4C56"/>
</svg>
